<?xml version="1.0" encoding="UTF-8"?>
<svg width="97px" height="16px" viewBox="0 0 97 16" version="1.1" xmlns="http://www.w3.org/2000/svg" xmlns:xlink="http://www.w3.org/1999/xlink">
    <!-- Generator: Sketch 57.1 (83088) - https://sketch.com -->
    <title>Fill 1</title>
    <desc>Created with Sketch.</desc>
    <g id="Marketing" stroke="none" stroke-width="1" fill="none" fill-rule="evenodd">
        <g id="Artboard" transform="translate(-350.000000, -197.000000)" fill="#0ECD57">
            <path d="M427.570447,202.848628 C428.139405,203.164962 428.674894,203.627857 429.284211,203.770108 C431.245705,204.230018 433.24362,204.531762 435.210364,204.972109 C436.73546,205.313643 438.236932,205.764601 439.743653,206.185385 C439.962837,206.246728 440.15413,206.411195 440.542294,206.633358 C440.135099,206.8406 439.893932,207.067737 439.65178,207.068068 C438.781937,207.069395 437.904219,207.052815 437.043892,206.934439 C435.590326,206.735155 434.154806,206.393621 432.699271,206.221196 C431.157113,206.03816 429.590018,206.056729 428.050484,205.85844 C420.94376,204.943261 413.803567,205.175372 406.675843,205.271532 C402.75023,205.324254 398.826258,205.741722 394.907863,206.070656 C390.692193,206.424459 386.471601,206.769309 382.276275,207.30449 C379.337643,207.679183 376.445932,208.414973 373.519113,208.90108 C370.69926,209.368948 367.859392,209.713135 365.031336,210.135245 C364.389536,210.231074 363.761516,210.420741 363.128247,210.571613 C362.310575,210.766586 361.492575,210.960564 360.677528,211.165816 C360.230302,211.278224 359.786358,211.407211 359.344382,211.539183 C358.796751,211.702987 358.253058,211.880386 357.706413,212.047837 C357.098409,212.23452 356.497295,212.459004 355.876822,212.586997 C355.420081,212.680836 354.937746,212.645688 354.46624,212.667904 C354.446553,212.556159 354.426865,212.444083 354.40685,212.332338 C354.719219,212.115481 355.03126,211.898954 355.489642,211.5803 C354.745141,211.327631 354.186683,211.208923 353.625599,211.656896 C353.414947,211.825011 353.191498,212.057784 352.951643,212.090612 C352.276375,212.183124 351.56042,212.0674 351.165037,212.872161 C351.097772,213.00977 350.663015,213.01408 350.408395,212.986559 C350.254835,212.969648 350.037292,212.79258 350.003496,212.65033 C349.974622,212.527643 350.13015,212.278953 350.265335,212.211972 C351.128944,211.783894 352.018474,211.408538 352.880442,210.978138 C353.234482,210.800739 353.51732,210.472469 353.875298,210.310654 C354.984011,209.809295 356.120615,209.371933 357.232281,208.877537 C358.092608,208.494886 358.915202,208.022043 359.784389,207.664261 C361.294063,207.043531 362.827362,206.482155 364.349833,205.893257 C365.26266,205.539786 366.170893,205.172388 367.087328,204.827869 C368.360757,204.348395 369.629265,203.851346 370.920084,203.422936 C372.473398,202.907651 374.039181,202.426518 375.614479,201.984513 C377.6393,201.415842 379.663137,200.827276 381.716176,200.382287 C384.270252,199.828537 386.851891,199.404438 389.424342,198.939553 C390.578664,198.730654 391.738236,198.551265 392.897151,198.372208 C393.731885,198.24289 394.56826,198.119208 395.40726,198.022385 C401.493207,197.320084 407.597529,196.830994 413.724491,197.054815 C416.804542,197.167554 419.880327,197.52401 422.947253,197.86886 C426.090959,198.222663 429.233681,198.624546 432.353434,199.147458 C434.064574,199.433949 435.727479,200.013562 437.411713,200.463194 C437.570195,200.505305 437.723098,200.567312 437.881251,200.611413 C439.711498,201.12073 441.572259,201.541182 443.361819,202.169207 C444.403596,202.535279 445.377781,203.075102 446.501916,203.21271 C446.687631,203.23559 446.834956,203.576461 447,203.770439 C446.77327,203.922969 446.530134,204.224713 446.323091,204.20117 C445.598277,204.118274 444.882978,203.936896 444.169976,203.767123 C443.350663,203.571819 442.539881,203.340371 441.721553,203.141419 C441.245125,203.025364 440.746056,202.987895 440.282752,202.835696 C438.118153,202.126101 435.904992,201.967271 433.647206,202.108858 C432.311435,202.192418 430.968445,202.149644 429.631689,202.214966 C428.969873,202.247462 428.313308,202.395349 427.654445,202.491178 C427.626555,202.610217 427.598337,202.729589 427.570447,202.848628" id="Fill-1"></path>
        </g>
    </g>
</svg>