<?xml version="1.0" encoding="UTF-8"?>
<svg width="30px" height="29px" viewBox="0 0 30 29" version="1.1" xmlns="http://www.w3.org/2000/svg" xmlns:xlink="http://www.w3.org/1999/xlink">
    <!-- Generator: Sketch 57.1 (83088) - https://sketch.com -->
    <title>Fill 456</title>
    <desc>Created with Sketch.</desc>
    <g id="Marketing" stroke="none" stroke-width="1" fill="none" fill-rule="evenodd">
        <g id="Desktop-Copy-22" transform="translate(-242.000000, -218.000000)" fill="#BB544F">
            <g id="Group-2" transform="translate(145.572438, 177.000000)">
                <g id="Fill-456" transform="translate(97.000000, 41.000000)">
                    <path d="M11.2781288,18.5898774 L9.35582185,20.5127758 C9.07780839,20.7908748 8.92021788,21.1701007 8.92021788,21.5641982 L8.92021788,24.5385189 C8.92021788,25.3579443 8.25268824,26.0256793 7.4335149,26.0256793 C6.79571932,26.0256793 6.26050625,25.6181973 6.05088113,25.0501021 L6.99791093,24.1027809 L4.89571291,21.9999362 L3.94868311,22.9472573 C3.38224928,22.7375677 2.97340596,22.20219 2.97340596,21.5641982 C2.97340596,20.7447728 3.6409356,20.0770378 4.46010894,20.0770378 L7.4335149,20.0770378 C7.82749119,20.0770378 8.20660045,19.920886 8.48461391,19.6412998 L10.4069209,17.7184015 L11.2781288,18.5898774 Z M26.3250497,2.66685138 C22.7673694,-0.893410541 17.3661775,-0.884487579 13.8159308,2.66685138 C9.98321051,6.5007508 8.27796219,11.2254593 9.07632169,14.8437205 L6.81801987,17.1027171 L4.46010894,17.1027171 C2.00110221,17.1027171 0,19.1044349 0,21.5641982 C0,23.574839 1.33505928,25.2776376 3.16519064,25.8338356 C3.72121756,27.66453 5.42349247,29 7.4335149,29 C9.89252163,29 11.8936238,26.9982821 11.8936238,24.5385189 L11.8936238,22.1798826 L14.1548991,19.9193988 C18.4529574,20.8830787 23.1866197,18.3192142 26.3250497,15.1798187 C29.8916501,11.6136081 29.8916501,6.23306194 26.3250497,2.66685138 L26.3250497,2.66685138 Z"></path>
                </g>
            </g>
        </g>
    </g>
</svg>