<?xml version="1.0" encoding="UTF-8"?>
<svg width="24px" height="21px" viewBox="0 0 24 21" version="1.1" xmlns="http://www.w3.org/2000/svg" xmlns:xlink="http://www.w3.org/1999/xlink">
    <!-- Generator: Sketch 57.1 (83088) - https://sketch.com -->
    <title>Embed_ic</title>
    <desc>Created with Sketch.</desc>
    <g id="Page-1" stroke="none" stroke-width="1" fill="none" fill-rule="evenodd">
        <g id="Desktop-Copy-7" transform="translate(-605.000000, -25.000000)" fill="#BFBFBF">
            <g id="Embed_ic" transform="translate(604.000000, 25.000000)">
                <path d="M20.9995,5.6665 L18.6665,5.6665 C18.4825,5.6665 18.3325,5.8165 18.3325,6.0005 C18.3325,6.1845 18.4825,6.3335 18.6665,6.3335 L19.3325,6.3335 C20.2525,6.3335 20.9995,7.0825 20.9995,8.0005 C20.9995,8.8055 20.4255,9.4775 19.6665,9.6335 L19.6665,10.3335 L18.3325,10.3335 L18.3325,9.6665 L16.9995,9.6665 L16.9995,8.3335 L19.3325,8.3335 C19.5165,8.3335 19.6665,8.1845 19.6665,8.0005 C19.6665,7.8165 19.5165,7.6665 19.3325,7.6665 L18.6665,7.6665 C17.7475,7.6665 16.9995,6.9195 16.9995,6.0005 C16.9995,5.1955 17.5735,4.5215 18.3325,4.3675 L18.3325,3.6665 L19.6665,3.6665 L19.6665,4.3335 L20.9995,4.3335 L20.9995,5.6665 Z M13.9995,5.4145 L9.9995,9.4145 L7.9995,7.4145 L4.9995,10.4145 L4.9995,7.5865 L7.9995,4.5865 L9.9995,6.5865 L13.9995,2.5865 L13.9995,5.4145 Z M22.9995,0.0005 L2.9995,0.0005 C1.8965,0.0005 0.9995,0.8975 0.9995,2.0005 L0.9995,13.0005 L24.9995,13.0005 L24.9995,2.0005 C24.9995,0.8975 24.1025,0.0005 22.9995,0.0005 L22.9995,0.0005 Z" id="Fill-495"></path>
                <path d="M0.9995,15.0005 C0.9995,16.1035 1.8965,17.0005 2.9995,17.0005 L11.9995,17.0005 L11.9995,19.0005 L7.9995,19.0005 L7.9995,21.0005 L17.9995,21.0005 L17.9995,19.0005 L13.9995,19.0005 L13.9995,17.0005 L22.9995,17.0005 C24.1025,17.0005 24.9995,16.1035 24.9995,15.0005 L24.9995,14.0005 L0.9995,14.0005 L0.9995,15.0005 Z" id="Fill-496"></path>
            </g>
        </g>
    </g>
</svg>