<?xml version="1.0" encoding="UTF-8"?>
<svg width="24px" height="24px" viewBox="0 0 24 24" version="1.1" xmlns="http://www.w3.org/2000/svg" xmlns:xlink="http://www.w3.org/1999/xlink">
    <!-- Generator: Sketch 57.1 (83088) - https://sketch.com -->
    <title>emeal</title>
    <desc>Created with Sketch.</desc>
    <g id="emeal" stroke="none" stroke-width="1" fill="none" fill-rule="evenodd">
        <g id="mail-24px">
            <path d="M20,4 L4,4 C2.9,4 2,4.9 2,6 L2,18 C2,19.1 2.9,20 4,20 L20,20 C21.1,20 22,19.1 22,18 L22,6 C22,4.9 21.1,4 20,4 Z M19.6,8.25 L13.06,12.34 C12.41,12.75 11.59,12.75 10.94,12.34 L4.4,8.25 C4.15,8.09 4,7.82 4,7.53 C4,6.86 4.73,6.46 5.3,6.81 L12,11 L18.7,6.81 C19.27,6.46 20,6.86 20,7.53 C20,7.82 19.85,8.09 19.6,8.25 Z" id="Shape" fill="#CBCBCB" fill-rule="nonzero"></path>
        </g>
    </g>
</svg>