<?xml version="1.0" encoding="UTF-8"?>
<svg width="24px" height="18px" viewBox="0 0 24 18" version="1.1" xmlns="http://www.w3.org/2000/svg" xmlns:xlink="http://www.w3.org/1999/xlink">
    <!-- Generator: Sketch 57.1 (83088) - https://sketch.com -->
    <title>Group 7</title>
    <desc>Created with Sketch.</desc>
    <g id="App" stroke="none" stroke-width="1" fill="none" fill-rule="evenodd">
        <g id="Desktop-Copy-14" transform="translate(-608.000000, -25.000000)" fill="#BFBFBF">
            <g id="Group-7" transform="translate(608.000000, 25.000000)">
                <path d="M0.832,8.86646989 C2.61023834,6.71208356 4.38405086,4.55406216 6.16979967,2.40600355 C6.5938731,1.89601633 6.96979905,1.87851413 7.49808027,2.28591152 C7.63970632,2.3949637 7.77422423,2.5133055 7.91142446,2.62801224 C8.66086226,3.25472567 8.6973417,3.55751375 8.08550647,4.29893392 C6.90341184,5.73182566 5.71447731,7.15892822 4.52916391,8.58912732 C4.43018662,8.70881545 4.33670807,8.83308108 4.19776434,9.00985331 C4.93526585,9.90111924 5.67263326,10.7929237 6.41093947,11.6839204 C7.01057018,12.4077037 7.62025956,13.1232745 8.20849045,13.8563474 C8.6465119,14.4024161 8.59876675,14.7715779 8.06699852,15.2410408 C7.88272373,15.4038113 7.69402312,15.5620043 7.49955555,15.7125232 C6.97087197,16.1216708 6.59534837,16.1043032 6.17140906,15.5945853 C4.38498967,13.4470652 2.61064068,11.2895823 0.832,9.13573452 L0.832,8.86646989 Z" id="Fill-1"></path>
                <path d="M16.192,0.958349521 C16.1070962,1.26224178 16.0632837,1.43352407 16.0114434,1.60226389 C14.4145991,6.79599795 12.8182991,11.9898658 11.2179171,17.1823956 C10.9772203,17.9630681 10.643592,18.1327446 9.8459862,17.909141 C9.67223278,17.8604326 9.50038425,17.8039629 9.32867178,17.7485638 C8.52630379,17.4900346 8.37200748,17.2092922 8.6208681,16.3985114 C9.82993068,12.4602231 11.0440276,8.52340662 12.2558115,4.58592112 C12.6423686,3.33034164 13.023075,2.07288875 13.4142583,0.818513588 C13.6582206,0.0363690591 13.9858622,-0.133173647 14.7851007,0.0915005468 C15.046071,0.164830778 15.3369753,0.199221051 15.5545413,0.340261313 C15.8117018,0.506860105 16.004232,0.769939 16.192,0.958349521" id="Fill-3"></path>
                <path d="M20.5678124,8.97618753 C19.2466056,7.3978495 17.9630624,5.86038987 16.6741,4.32751726 C16.3773975,3.97472182 15.97922,3.54138377 16.3278116,3.14784484 C16.7515949,2.66944611 17.351503,2.32892768 17.9210634,2.00986029 C18.0343252,1.94645154 18.4108258,2.20238002 18.5706929,2.3909873 C20.2600005,4.38337092 21.9251925,6.39585646 23.6089454,8.39269219 C23.9610595,8.81038041 23.9588918,9.16735814 23.6071842,9.58423689 C21.9231603,11.5809377 20.2571554,13.5927487 18.5742154,15.590259 C18.1423033,16.1029254 17.7653962,16.1223528 17.2316027,15.7165368 C17.1241666,15.6346451 17.0226916,15.5449285 16.9183715,15.4589894 C16.0155288,14.7150834 15.9893811,14.4649562 16.7213827,13.5912647 C17.8928835,12.1931693 19.0642487,10.7949391 20.2349366,9.39630417 C20.3349213,9.27690686 20.4286738,9.15211306 20.5678124,8.97618753" id="Fill-5"></path>
            </g>
        </g>
    </g>
</svg>