<svg xmlns="http://www.w3.org/2000/svg" width="76" height="79" viewBox="0 0 76 79">
  <g id="Page-1" fill="none" fill-rule="evenodd" stroke="none" stroke-width="1">
    <g id="image07" fill="#BB5450" fill-rule="nonzero" transform="translate(0 -1)">
      <g id="Group">
        <path id="Path" d="M8.9345,39.458 C13.7825,43.784 18.6305,48.11 23.4775,52.436 C26.3895,55.033 29.3005,57.631 32.2115,60.229 C33.9195,61.753 35.5875,63.595 38.0805,63.5860655 C40.5715,63.578 42.2175,61.733 43.9065,60.189 C46.7715,57.57 49.6375,54.951 52.5025,52.332 C57.2735,47.97 62.0455,43.609 66.8165,39.248 C69.1975,37.072 65.6535,33.543 63.2815,35.712 C59.2425,39.404 55.2035,43.096 51.1635,46.788 C48.2265,49.473 45.2895,52.158 42.3525,54.842 C41.5265,55.597 39.2465,58.538 38.0755,58.521 C36.8505,58.504 34.6145,55.682 33.7335,54.896 C30.8735,52.345 28.0145,49.793 25.1545,47.241 C20.9265,43.468 16.6985,39.695 12.4705,35.923 C10.0755,33.786 6.5275,37.311 8.9345,39.458"/>
        <path id="Path" d="M13.2103 69.6216C18.2233 64.6086 23.2353 59.5966 28.2483 54.5836 30.5263 52.3056 26.9913 48.7686 24.7123 51.0486L9.6743 66.0856C7.3973 68.3646 10.9313 71.9006 13.2103 69.6216M67.0414 66.0859C62.0284 61.0729 57.0164 56.0609 52.0034 51.0479 49.7254 48.7699 46.1894 52.3049 48.4684 54.5839 53.4804 59.5959 58.4934 64.6089 63.5054 69.6219 65.7844 71.8989 69.3204 68.3649 67.0414 66.0859"/>
        <path id="Path" d="M6.1107,42.5634 L6.1107,23.5904 L6.1107,10.7394 C6.1107,8.7424 5.6907,6.0824 6.4317,4.2924 L4.6857,6.0384 C6.4967,5.2884 9.1857,5.7174 11.2227,5.7174 L24.8897,5.7174 L38.5567,5.7174 C40.6107,5.7174 43.2717,5.2834 45.0937,6.0384 L43.3477,4.2924 C44.0647,6.0214 43.6687,8.4874 43.6687,10.4374 L43.6687,23.2394 L43.6687,41.8604 C43.6687,45.0784 48.6687,45.0834 48.6687,41.8604 L48.6687,14.5694 C48.6687,11.3864 49.1407,7.7924 48.6687,4.6354 C48.0817,0.7074 44.9607,0.7174 41.8237,0.7174 L10.1477,0.7174 C7.6337,0.7174 3.5797,-0.0086 1.8617,2.3654 C0.3207,4.4974 1.1107,8.7374 1.1107,11.1184 L1.1107,42.5634 C1.1107,45.7804 6.1107,45.7864 6.1107,42.5634" transform="translate(13 .387)"/>
        <path id="Path" d="M14.3217,1.6234 C11.8117,3.8284 9.3007,6.0334 6.7907,8.2384 C4.4087,10.3294 1.1647,12.3014 0.5187,15.6004 C-0.5943,21.2864 0.4297,28.0764 0.4297,33.8394 C0.4297,41.1164 -0.0473,48.5714 0.4297,55.8344 C0.8157,61.7104 5.4527,61.7354 9.9767,61.7354 L60.6707,61.7354 C64.3147,61.7354 71.4127,63.0274 74.1907,59.8994 C75.8447,58.0364 75.5787,55.6194 75.5787,53.3274 L75.5787,41.6384 C75.5787,33.5964 76.2787,25.2104 75.5787,17.1954 C75.2797,13.7724 72.7797,12.1614 70.3997,10.0634 C67.3807,7.4024 64.3617,4.7424 61.3427,2.0814 C58.9367,-0.0396 55.3877,3.4844 57.8077,5.6164 C59.8937,7.4554 61.9807,9.2944 64.0667,11.1334 C65.7927,12.6554 69.6827,14.8934 70.5787,17.0964 C71.0977,18.3724 70.5787,20.9454 70.5787,22.2944 L70.5787,33.7124 C70.5787,40.6184 71.2897,47.9294 70.5787,54.8014 C70.4057,56.4724 70.6547,56.3184 69.2147,56.7354 C67.4847,57.2374 64.8907,56.7354 63.0937,56.7354 L16.8397,56.7354 C14.9197,56.7354 6.6907,57.9894 5.4297,56.2964 C4.8387,55.5024 5.4297,51.9294 5.4297,50.9664 L5.4297,39.7294 L5.4297,25.9334 C5.4297,23.2214 4.8827,19.8554 5.4297,17.1904 C5.8947,14.9244 8.2027,13.6384 9.9707,12.0854 C12.5997,9.7764 15.2287,7.4684 17.8577,5.1594 C20.2797,3.0314 16.7317,-0.4936 14.3217,1.6234" transform="translate(0 17.387)"/>
        <path id="Path" d="M27.0834,27.1191 C27.0504,24.5261 28.6324,22.2401 31.0104,21.3571 C33.2604,20.5211 35.8244,21.0371 37.5414,22.8591 C37.7924,23.1251 37.9334,23.1161 38.1834,22.8541 C39.5824,21.3941 41.3254,20.7881 43.3084,21.0181 C45.8174,21.3081 47.8904,23.1791 48.4494,25.5511 C48.9414,27.6411 48.4244,29.5221 47.2694,31.2611 C46.2474,32.8001 44.9454,34.0851 43.5604,35.2971 C41.9154,36.7361 40.1674,38.0351 38.3634,39.2631 C38.0604,39.4691 37.8124,39.5791 37.4354,39.3231 C34.9144,37.6081 32.4874,35.7811 30.3554,33.5901 C29.2734,32.4781 28.2804,31.2931 27.6714,29.8421 C27.2974,28.9521 27.0564,28.0261 27.0834,27.1191"/>
      </g>
    </g>
  </g>
</svg>
