<?xml version="1.0" encoding="UTF-8"?>
<svg width="26px" height="19px" viewBox="0 0 26 19" version="1.1" xmlns="http://www.w3.org/2000/svg" xmlns:xlink="http://www.w3.org/1999/xlink">
    <!-- Generator: Sketch 57.1 (83088) - https://sketch.com -->
    <title>visibility-24px</title>
    <desc>Created with Sketch.</desc>
    <g id="App" stroke="none" stroke-width="1" fill="none" fill-rule="evenodd">
        <g id="Desktop-Copy-14" transform="translate(-133.000000, -192.000000)">
            <g id="visibility-24px" transform="translate(132.000000, 188.000000)">
                <path d="M14,4.66666667 C8.16666667,4.66666667 3.185,8.295 1.16666667,13.4166667 C3.185,18.5383333 8.16666667,22.1666667 14,22.1666667 C19.8333333,22.1666667 24.815,18.5383333 26.8333333,13.4166667 C24.815,8.295 19.8333333,4.66666667 14,4.66666667 Z M14,19.25 C10.78,19.25 8.16666667,16.6366667 8.16666667,13.4166667 C8.16666667,10.1966667 10.78,7.58333333 14,7.58333333 C17.22,7.58333333 19.8333333,10.1966667 19.8333333,13.4166667 C19.8333333,16.6366667 17.22,19.25 14,19.25 Z M14,9.91666667 C12.0633333,9.91666667 10.5,11.48 10.5,13.4166667 C10.5,15.3533333 12.0633333,16.9166667 14,16.9166667 C15.9366667,16.9166667 17.5,15.3533333 17.5,13.4166667 C17.5,11.48 15.9366667,9.91666667 14,9.91666667 Z" id="Shape" fill="#FF4500" fill-rule="nonzero"></path>
            </g>
        </g>
    </g>
</svg>