<?xml version="1.0" encoding="UTF-8"?>
<svg width="54px" height="54px" viewBox="0 0 54 54" version="1.1" xmlns="http://www.w3.org/2000/svg" xmlns:xlink="http://www.w3.org/1999/xlink">
    <!-- Generator: Sketch 57.1 (83088) - https://sketch.com -->
    <title>image_upload_placeholder</title>
    <desc>Created with Sketch.</desc>
    <defs>
        <polygon id="path-1" points="0.0127342451 0.01685086 49.6323661 0.01685086 49.6323661 49.6364796 0.0127342451 49.6364796"></polygon>
    </defs>
    <g id="Page-1" stroke="none" stroke-width="1" fill="none" fill-rule="evenodd">
        <g id="Desktop-Copy-7" transform="translate(-288.000000, -211.000000)">
            <g id="image_upload_placeholder" transform="translate(288.000000, 211.000000)">
                <path d="M46.4562207,45.1679638 L16.0030026,51.8266833 C11.9872472,52.7046011 8.0203256,50.1611895 7.14240476,46.1457191 L0.483662803,15.692604 C-0.394258033,11.6771336 2.14916219,7.71022534 6.16437491,6.83203618 L36.617593,0.173316745 C40.6333483,-0.70460112 44.60027,1.83881049 45.4784621,5.85428093 L52.1369328,36.307396 C53.0151249,40.3228664 50.4717047,44.290046 46.4562207,45.1679638" id="Fill-1" fill="#E5E5E7"></path>
                <g id="Group-5" transform="translate(4.310345, 4.000000)">
                    <mask id="mask-2" fill="white">
                        <use xlink:href="#path-1"></use>
                    </mask>
                    <g id="Clip-4"></g>
                    <path d="M42.8793093,46.3686716 L11.5348323,49.5964139 C7.4018412,50.0217519 3.70625446,47.0164139 3.28091645,42.8834228 L0.0528998724,11.5389458 C-0.372712372,7.40595472 2.63262564,3.71036798 6.76589094,3.28502997 L38.1100938,0.0570133929 C42.2433591,-0.368598852 45.9386716,2.63701339 46.3642838,6.77000446 L49.5923004,38.1142073 C50.0176384,42.2474726 47.0123004,45.9427851 42.8793093,46.3686716" id="Fill-3" fill="#C7CACF" mask="url(#mask-2)"></path>
                </g>
                <path d="M50.2557984,40.6226432 C50.4971113,42.6370956 49.3871802,44.0098976 47.8661535,45.090942 C47.2345294,45.5403406 46.398842,45.6520143 45.6271268,45.831287 C44.2340445,46.1544106 42.7858976,45.9856833 41.3917356,46.3490959 C40.6588896,46.5402661 39.8720586,46.3031285 39.1157291,46.4778045 C37.8527506,46.7692918 36.5465842,46.6908768 35.2684899,46.9653291 C34.0095603,47.235455 32.6955661,47.2419445 31.4088342,47.3882289 C30.0778347,47.5399212 28.7514239,47.7270354 27.4212341,47.8862988 C25.9595909,48.0615156 24.4955184,48.2194271 23.0333354,48.3903175 C21.9771194,48.5136183 20.9047079,48.5679679 19.8714355,48.7969936 C18.9040248,49.0116882 17.9209584,49.0771241 16.999165,48.8902803 C15.6989369,48.6271847 14.5217945,48.063138 13.6456184,46.9117906 C12.6892746,45.655259 12.712758,44.179436 12.3856091,42.7701306 C12.0581902,41.3594731 12.878222,40.2627457 13.3254875,39.0805731 C13.8777538,37.6190811 14.6049314,36.2243771 15.2219796,34.7861392 C15.6263271,33.8446193 16.0117798,32.8817381 16.6784942,32.1057007 C18.263763,30.2613276 20.703074,30.4346516 22.1860413,32.4044886 C23.4652152,34.1041997 24.6898644,35.8450111 26.0632421,37.4746895 C26.5034896,37.9968248 26.8055355,38.6355008 27.2768243,39.1489834 C27.5972251,39.4975242 27.8053372,39.4169461 27.9505568,39.0173004 C28.3146854,38.0152117 28.6750351,37.0117711 29.0251277,36.0045449 C29.4043721,34.9145774 29.7471767,33.8148757 30.2427588,32.7638453 C30.4821821,32.2563114 30.568828,31.6549501 30.7013611,31.1057752 C30.8387529,30.533887 31.1011199,30.0131038 31.2995146,29.4923205 C31.6258538,28.637057 31.8220892,27.736367 32.1762306,26.9100359 C32.713651,25.6553971 33.1285256,24.3631732 33.5836189,23.0839283 C33.8257415,22.4038816 34.0986356,21.7795366 34.5464409,21.1946694 C35.0422929,20.5476111 35.7098171,20.1931215 36.4145909,20.0654945 C37.7134694,19.8302497 38.8557915,20.2252987 39.7322375,21.3060727 C40.607064,22.3849539 41.2413875,23.6174202 42.0209305,24.7568702 C43.3011841,26.628283 44.4883137,28.5643204 45.7364463,30.4595281 C46.5802315,31.7406657 47.3711113,33.0650668 48.194922,34.3640506 C48.6959026,35.1538781 49.2557268,35.9055798 49.7078509,36.7289365 C49.8509111,36.989869 49.9999096,37.249179 49.9996397,37.5401254 C49.9982901,38.5665498 50.4666097,39.5472771 50.2557984,40.6226432" id="Fill-6" fill="#FCFCFC"></path>
                <path d="M12.3209526,17.8603466 C12.2624578,15.857762 14.2118166,13.8791604 16.5292165,14.0057686 C18.5684165,14.1170388 20.2863151,16.0217391 20.3101049,17.9919745 C20.3333348,19.929024 18.6683334,22.1569377 16.0119997,21.9912873 C14.1077015,21.8727665 12.148547,20.0040407 12.3209526,17.8603466" id="Fill-8" fill="#FCFCFC"></path>
            </g>
        </g>
    </g>
</svg>