<?xml version="1.0" encoding="UTF-8"?>
<svg width="23px" height="21px" viewBox="0 0 23 21" version="1.1" xmlns="http://www.w3.org/2000/svg" xmlns:xlink="http://www.w3.org/1999/xlink">
    <!-- Generator: Sketch 57.1 (83088) - https://sketch.com -->
    <title>Design_ic</title>
    <desc>Created with Sketch.</desc>
    <g id="Page-1" stroke="none" stroke-width="1" fill="none" fill-rule="evenodd">
        <g id="Desktop-Copy-7" transform="translate(-474.000000, -23.000000)" fill="#FF4500">
            <g id="Design_ic" transform="translate(474.000000, 23.000000)">
                <path d="M20.404,5.05061667 C19.9571429,5.50678333 19.2348571,5.50678333 18.788,5.05061667 C18.3411429,4.59445 18.3411429,3.85711667 18.788,3.39978333 C19.2348571,2.94478333 19.9571429,2.94478333 20.404,3.39978333 C20.8508571,3.85711667 20.8508571,4.59445 20.404,5.05061667 M22.02,1.75011667 C20.9034286,0.61145 19.0965714,0.61145 17.98,1.75011667 L13.9388571,5.87545 L12.3228571,4.22578333 C11.4302857,3.31461667 9.98342857,3.31461667 9.09085714,4.22578333 L7.47485714,5.87545 L17.98,16.59945 L19.596,14.9497833 C20.4885714,14.0397833 20.4885714,12.5616167 19.596,11.65045 L17.98,10.00195 L22.02,5.87545 C23.1365714,4.73678333 23.1365714,2.88995 22.02,1.75011667" id="Fill-2169"></path>
                <path d="M5.04914286,10.0016 C3.43314286,11.6501 1.45485714,11.2814333 1.00914286,10.8252667 C0.562285714,11.2814333 0.562285714,12.0199333 1.00914286,12.4761 L8.28228571,19.9007667 C10.7062857,22.3752667 13.1302857,19.9007667 13.1302857,19.9007667 L16.3634286,16.6002667 L7.47428571,7.52593333 L5.04914286,10.0016 Z" id="Fill-2170"></path>
            </g>
        </g>
    </g>
</svg>