<?xml version="1.0" encoding="UTF-8"?>
<svg width="211px" height="300px" viewBox="0 0 211 300" version="1.1" xmlns="http://www.w3.org/2000/svg" xmlns:xlink="http://www.w3.org/1999/xlink">
    <!-- Generator: Sketch 57.1 (83088) - https://sketch.com -->
    <title>computer</title>
    <desc>Created with Sketch.</desc>
    <defs>
        <linearGradient x1="64.9314394%" y1="92.2331834%" x2="29.5037988%" y2="19.1607895%" id="linearGradient-1">
            <stop stop-color="#F3F3FD" offset="11.08%"></stop>
            <stop stop-color="#F3F3FD" offset="26.76%"></stop>
            <stop stop-color="#F3F3FD" offset="52.78%"></stop>
            <stop stop-color="#EDEFFA" offset="55.59%"></stop>
            <stop stop-color="#EBEDF9" offset="62.05%"></stop>
            <stop stop-color="#EBEDF9" offset="75.74%"></stop>
            <stop stop-color="#E6E8F7" offset="76.47%"></stop>
            <stop stop-color="#DFE3F4" offset="78.38%"></stop>
            <stop stop-color="#DDE1F3" offset="83.68%"></stop>
            <stop stop-color="#DDE1F3" offset="100%"></stop>
        </linearGradient>
        <linearGradient x1="63.8630237%" y1="91.69384%" x2="29.7129288%" y2="18.6972901%" id="linearGradient-2">
            <stop stop-color="#FAFAFF" offset="11.08%"></stop>
            <stop stop-color="#FAFAFF" offset="26.76%"></stop>
            <stop stop-color="#F3F3FD" offset="52.78%"></stop>
            <stop stop-color="#EDEFFA" offset="55.59%"></stop>
            <stop stop-color="#EBEDF9" offset="62.05%"></stop>
            <stop stop-color="#EBEDF9" offset="75.74%"></stop>
            <stop stop-color="#E6E8F7" offset="76.47%"></stop>
            <stop stop-color="#DFE3F4" offset="78.38%"></stop>
            <stop stop-color="#DDE1F3" offset="83.68%"></stop>
            <stop stop-color="#DDE1F3" offset="100%"></stop>
        </linearGradient>
        <linearGradient x1="65.9927499%" y1="79.3967779%" x2="13.9218442%" y2="3.24062827%" id="linearGradient-3">
            <stop stop-color="#EBEBF5" offset="11.08%"></stop>
            <stop stop-color="#EBEBF5" offset="26.76%"></stop>
            <stop stop-color="#EBEBF5" offset="52.78%"></stop>
            <stop stop-color="#E6E8F3" offset="55.33%"></stop>
            <stop stop-color="#E4E6F2" offset="62.05%"></stop>
            <stop stop-color="#E4E6F2" offset="75.74%"></stop>
            <stop stop-color="#E0E2F0" offset="76.36%"></stop>
            <stop stop-color="#D9DCED" offset="78.3%"></stop>
            <stop stop-color="#D7DAEC" offset="83.68%"></stop>
            <stop stop-color="#D7DAEC" offset="100%"></stop>
        </linearGradient>
        <linearGradient x1="49.9126679%" y1="50.3895411%" x2="41.4471717%" y2="107.857905%" id="linearGradient-4">
            <stop stop-color="#8B6B75" offset="12.7%"></stop>
            <stop stop-color="#646AA1" offset="96.49%"></stop>
        </linearGradient>
        <linearGradient x1="49.7475562%" y1="54.8040311%" x2="44.8620162%" y2="114.946474%" id="linearGradient-5">
            <stop stop-color="#967983" offset="12.7%"></stop>
            <stop stop-color="#646AA1" offset="96.49%"></stop>
        </linearGradient>
        <linearGradient x1="-0.279365079%" y1="50.0317708%" x2="99.9650794%" y2="50.0317708%" id="linearGradient-6">
            <stop stop-color="#EBEBF5" offset="11.08%"></stop>
            <stop stop-color="#EBEBF5" offset="26.76%"></stop>
            <stop stop-color="#EBEBF5" offset="52.78%"></stop>
            <stop stop-color="#E6E8F3" offset="55.33%"></stop>
            <stop stop-color="#E4E6F2" offset="62.05%"></stop>
            <stop stop-color="#E4E6F2" offset="75.74%"></stop>
            <stop stop-color="#E0E2F0" offset="76.36%"></stop>
            <stop stop-color="#D9DCED" offset="78.3%"></stop>
            <stop stop-color="#D7DAEC" offset="83.68%"></stop>
            <stop stop-color="#D7DAEC" offset="100%"></stop>
        </linearGradient>
        <linearGradient x1="34.272803%" y1="16.8087804%" x2="70.856408%" y2="95.4620129%" id="linearGradient-7">
            <stop stop-color="#68575C" offset="2.43243%"></stop>
            <stop stop-color="#445391" offset="96.49%"></stop>
        </linearGradient>
        <linearGradient x1="47.9302641%" y1="46.1360223%" x2="75.6884948%" y2="98.2917246%" id="linearGradient-8">
            <stop stop-color="#B8C1FF" offset="30%"></stop>
            <stop stop-color="#86AEFA" offset="96.49%"></stop>
        </linearGradient>
        <linearGradient x1="46.7477654%" y1="46.1199861%" x2="73.4085249%" y2="98.2575252%" id="linearGradient-9">
            <stop stop-color="#B8C1FF" offset="30%"></stop>
            <stop stop-color="#86AEFA" offset="96.49%"></stop>
        </linearGradient>
    </defs>
    <g id="App" stroke="none" stroke-width="1" fill="none" fill-rule="evenodd">
        <g id="Desktop-Copy-19" transform="translate(-155.000000, -202.000000)" fill-rule="nonzero">
            <g id="computer" transform="translate(155.000000, 202.000000)">
                <g id="Group">
                    <path d="M27.9123711,267.680412 L128.505155,209.613402 C135.850515,205.360825 147.680412,205.360825 155.025773,209.536082 L177.912371,222.757732 C185.180412,226.93299 185.180412,233.814433 177.835052,238.06701 L77.1649485,296.134021 C69.8195876,300.386598 57.9896907,300.386598 50.6443299,296.21134 L27.8350515,282.912371 C20.4896907,278.737113 20.5670103,271.85567 27.9123711,267.680412 Z" id="Path" fill="#EDEDED" opacity="0.75"></path>
                    <g id="Path">
                        <g transform="translate(71.907216, 187.113402)">
                            <path d="M62.7061856,51.9587629 L41.056701,43.0670103 L31.7010309,39.2010309 C30.6185567,38.5051546 29.8453608,36.9587629 30.0773196,35.8762887 L33.943299,19.5618557 L45,5.79896907 L40.6701031,0.154639175 L15.4639175,15 L2.70618557,49.1752577 L5.48969072,55.7474227 L7.96391753,55.4381443 L24.8195876,71.1340206 C28.9948454,75 35.1804124,75.6958763 40.0515464,72.757732 L63.0927835,59.0721649 C66.1082474,57.4484536 65.7989691,53.1958763 62.7061856,51.9587629 Z" fill="url(#linearGradient-1)"></path>
                            <path d="M8.7371134,34.4072165 L4.87113402,50.7216495 C4.63917526,51.8041237 5.41237113,53.4278351 6.49484536,54.0463918 L15.3092784,62.242268 L24.8969072,71.2113402 C29.0721649,75.0773196 35.257732,75.7731959 40.128866,72.8350515 L63.1701031,59.1494845 C63.3247423,59.0721649 63.4793814,58.9175258 63.6340206,58.8402062 C63.6340206,58.8402062 63.7113402,58.7628866 63.7113402,58.7628866 C63.8659794,58.685567 63.943299,58.5309278 64.0206186,58.4536082 C64.0206186,58.4536082 64.0979381,58.3762887 64.0979381,58.3762887 C64.1752577,58.2989691 64.2525773,58.2216495 64.3298969,58.1443299 C64.4072165,58.0670103 64.4072165,57.9896907 64.4845361,57.9896907 C64.5618557,57.9123711 64.5618557,57.8350515 64.6391753,57.757732 C64.7164948,57.6030928 64.7938144,57.5257732 64.871134,57.371134 C64.871134,57.2938144 64.871134,57.2938144 64.9484536,57.2164948 C64.9484536,57.1391753 65.0257732,56.9845361 65.0257732,56.9072165 L65.0257732,56.9072165 C65.5670103,55.0515464 64.7938144,52.8092784 62.7061856,51.9587629 L41.056701,43.0670103 L31.7010309,39.2010309 C30.6185567,38.5051546 29.8453608,36.9587629 30.0773196,35.8762887 L33.943299,19.5618557 L45,5.79896907 L40.6701031,0.154639175 L15.4639175,15 L19.7938144,20.6443299 L8.7371134,34.4072165 Z" fill="url(#linearGradient-2)"></path>
                            <path d="M62.9381443,52.0360825 C64.6391753,52.9639175 65.1030928,54.8195876 64.6391753,56.2886598 C64.6391753,56.3659794 64.5618557,56.443299 64.5618557,56.5206186 C64.5618557,56.5206186 64.5618557,56.5979381 64.4845361,56.5979381 C64.4072165,56.7525773 64.4072165,56.8298969 64.3298969,56.9845361 C64.2525773,57.0618557 64.2525773,57.1391753 64.2525773,57.1391753 C64.2525773,57.2164948 64.1752577,57.2164948 64.0979381,57.2938144 C64.0206186,57.371134 63.943299,57.4484536 63.943299,57.5257732 C63.943299,57.5257732 63.8659794,57.6030928 63.8659794,57.6030928 C63.7886598,57.6804124 63.7113402,57.757732 63.556701,57.9123711 C63.556701,57.9123711 63.4793814,57.9896907 63.4793814,57.9896907 C63.3247423,58.1443299 63.1701031,58.2216495 63.0927835,58.2989691 L40.0515464,71.9845361 C38.1185567,73.1443299 35.9536082,73.685567 33.7113402,73.685567 L33.7113402,73.685567 C30.5412371,73.685567 27.5257732,72.5257732 25.2835052,70.3608247 L6.72680412,53.3505155 L6.72680412,53.3505155 C5.79896907,52.8092784 5.10309278,51.3402062 5.33505155,50.4123711 L9.20103093,34.1752577 L17.628866,23.7371134 C17.5515464,23.7371134 17.4742268,23.7371134 17.4742268,23.7371134 L8.89175258,34.4072165 L5.0257732,50.7216495 C4.79381443,51.8041237 5.56701031,53.4278351 6.64948454,54.0463918 L15.4639175,62.242268 L25.0515464,71.2113402 C29.2268041,75.0773196 35.4123711,75.7731959 40.2835052,72.8350515 L63.3247423,59.1494845 C63.4793814,59.0721649 63.6340206,58.9175258 63.7886598,58.8402062 C63.7886598,58.8402062 63.8659794,58.7628866 63.8659794,58.7628866 C64.0206186,58.685567 64.0979381,58.5309278 64.1752577,58.4536082 C64.1752577,58.4536082 64.2525773,58.3762887 64.2525773,58.3762887 C64.3298969,58.2989691 64.4072165,58.2216495 64.4845361,58.1443299 C64.5618557,58.0670103 64.5618557,57.9896907 64.6391753,57.9896907 C64.7164948,57.9123711 64.7164948,57.8350515 64.7938144,57.757732 C64.871134,57.6030928 64.9484536,57.5257732 65.0257732,57.371134 C65.0257732,57.2938144 65.0257732,57.2938144 65.1030928,57.2164948 C65.1030928,57.1391753 65.1804124,56.9845361 65.1804124,56.9072165 C65.5670103,55.0515464 64.7938144,52.9639175 62.9381443,52.0360825 Z" fill="url(#linearGradient-3)"></path>
                            <path d="M65.0257732,56.8298969 C64.7164948,57.757732 64.1752577,58.6082474 63.2474227,59.1494845 L40.2061856,72.8350515 C35.3350515,75.7731959 29.0721649,75.0773196 24.9742268,71.2113402 L20.8762887,67.3453608 L6.64948454,54.0463918 C5.56701031,53.3505155 4.79381443,51.8041237 5.0257732,50.7216495 L8.89175258,34.4072165 L19.9484536,20.6443299 L15.6185567,15 L4.71649485,30 L4.56185567,30.2319588 L4.48453608,30.5412371 L0.618556701,49.5618557 C0.231958763,51.6494845 1.77835052,54.742268 3.78865979,55.9793814 L24.9742268,73.6082474 L24.9742268,73.6082474 C29.1494845,77.4742268 35.3350515,78.1701031 40.2061856,75.2319588 L63.2474227,61.5463918 C64.9484536,60.4639175 65.4896907,58.5309278 65.0257732,56.8298969 Z" fill="#D8DDEE"></path>
                        </g>
                        <g>
                            <path d="M196.778351,140.489691 L196.159794,130.283505 L196.159794,130.283505 L188.427835,4.17525773 C188.427835,3.86597938 188.350515,3.55670103 188.273196,3.24742268 L192.525773,1.8556701 L188.505155,0.773195876 L188.505155,0.773195876 C187.42268,0.386597938 186.185567,0.618556701 184.793814,1.39175258 L5.87628866,104.613402 C2.62886598,106.469072 0.154639175,111.185567 0.386597938,115.051546 L8.1185567,241.778351 L8.65979381,251.21134 C8.81443299,253.530928 9.81958763,255 11.3659794,255.463918 L11.3659794,255.463918 L15.7731959,257.087629 L15.3092784,254.613402 L191.365979,150.850515 C194.536082,148.994845 197.010309,144.35567 196.778351,140.489691 Z" fill="#D8DDEE"></path>
                            <path d="M193.298969,151.778351 L18.7113402,252.603093 L15.6958763,257.087629 L12.0618557,242.551546 L9.51030928,241.93299 L1.77835052,115.438144 C1.54639175,111.572165 4.02061856,106.85567 7.26804124,105 L186.572165,1.46907216 C187.731959,0.773195876 188.273196,0.695876289 189.201031,0.850515464 L192.525773,1.77835052 L190.438144,4.79381443 C190.438144,4.87113402 190.438144,4.94845361 190.438144,5.0257732 L198.170103,131.134021 L198.78866,141.340206 C199.097938,145.206186 196.623711,149.92268 193.298969,151.778351 Z" fill="url(#linearGradient-4)"></path>
                            <path d="M200.180412,142.036082 L199.561856,131.829897 L191.829897,5.72164948 C191.829897,5.6443299 191.829897,5.56701031 191.829897,5.48969072 L192.525773,1.70103093 L190.824742,1.2371134 C189.819588,1.08247423 189.046392,1.39175258 187.886598,2.08762887 L8.58247423,105.618557 C5.33505155,107.474227 2.86082474,112.190722 3.09278351,116.056701 L11.2113402,248.659794 C16.4690722,247.036082 22.1907216,247.345361 27.6030928,248.891753 L194.690722,152.396907 C197.938144,150.618557 200.412371,145.902062 200.180412,142.036082 Z" fill="url(#linearGradient-5)"></path>
                            <path d="M10.8247423,242.242268 L11.443299,251.984536 C11.5206186,253.840206 12.2938144,255.386598 13.2989691,256.159794 L15.6958763,257.087629 L12.0618557,242.551546 L10.8247423,242.242268 Z" fill="url(#linearGradient-6)"></path>
                            <g transform="translate(3.865979, 1.546392)">
                                <path d="M199.948454,140.876289 L199.329897,130.670103 L8.19587629,241.005155 L8.81443299,251.21134 C9.04639175,255.07732 11.9072165,256.701031 15.1546392,254.845361 L194.458763,151.314433 C197.706186,149.458763 200.180412,144.742268 199.948454,140.876289 Z" fill="#F8F9FF"></path>
                                <path d="M185.257732,0.927835052 L5.95360825,104.458763 C2.70618557,106.314433 0.231958763,111.030928 0.463917526,114.896907 L8.19587629,241.005155 L199.329897,130.670103 L191.597938,4.56185567 C191.365979,0.695876289 188.505155,-0.927835052 185.257732,0.927835052 L185.257732,0.927835052 Z" fill="url(#linearGradient-7)"></path>
                                <polygon fill="url(#linearGradient-8)" points="183.943299 10.4381443 8.35051546 111.804124 15.7731959 232.809278 191.365979 131.443299"></polygon>
                                <polygon fill="url(#linearGradient-9)" points="183.943299 10.4381443 178.917526 13.2989691 186.030928 129.278351 15.4639175 227.783505 15.7731959 232.886598 191.365979 131.443299"></polygon>
                                <path d="M106.159794,188.969072 L102.989691,190.747423 C102.061856,191.28866 101.365979,192.603093 101.443299,193.685567 L101.675258,197.319588 C101.752577,198.402062 102.525773,198.865979 103.453608,198.324742 L106.623711,196.546392 C107.551546,196.005155 108.247423,194.690722 108.170103,193.608247 L107.938144,189.974227 C107.860825,188.891753 107.087629,188.427835 106.159794,188.969072 L106.159794,188.969072 Z" fill="#EBEDF9"></path>
                            </g>
                            <g transform="translate(9.278351, 17.010309)" fill="#000000" fill-opacity="0.0811024913">
                                <path d="M39.2783505,112.113402 C36.4175258,91.8556701 24.8969072,82.8865979 24.8969072,82.8865979 L42.9896907,72.4484536 C42.9896907,72.4484536 57.5257732,81.7268041 59.4587629,105.309278 C59.6907216,108.324742 58.0670103,111.262887 55.4381443,112.654639 L48.2474227,116.520619 C44.6134021,118.453608 40.128866,116.21134 39.2783505,112.113402 Z"></path>
                                <path d="M21.4175258,121.469072 C18.556701,101.443299 7.42268041,93.0154639 7.42268041,93.0154639 L25.5927835,82.5 C25.5927835,82.5 39.742268,90.9278351 41.7525773,114.742268 C41.9845361,117.757732 40.3608247,120.695876 37.7319588,122.087629 L30.5412371,125.953608 C26.6752577,127.963918 22.1134021,125.64433 21.4175258,121.469072 Z"></path>
                                <path d="M75.3092784,91.6237113 C72.4484536,71.3659794 60.9278351,62.3969072 60.9278351,62.3969072 L79.0206186,51.9587629 C79.0206186,51.9587629 93.556701,61.2371134 95.4896907,84.8195876 C95.7216495,87.8350515 94.0979381,90.7731959 91.4690722,92.1649485 L84.2783505,96.0309278 C80.5670103,97.9639175 76.0824742,95.6443299 75.3092784,91.6237113 Z"></path>
                                <path d="M57.371134,100.902062 C54.5103093,80.8762887 43.3762887,72.4484536 43.3762887,72.4484536 L61.5463918,61.9329897 C61.5463918,61.9329897 75.6958763,70.3608247 77.7061856,94.1752577 C77.9381443,97.1907216 76.314433,100.128866 73.685567,101.520619 L66.4948454,105.386598 C62.7061856,107.474227 58.1443299,105.07732 57.371134,100.902062 Z"></path>
                                <path d="M111.262887,71.056701 C108.402062,50.7989691 96.8814433,41.8298969 96.8814433,41.8298969 L114.974227,31.3917526 C114.974227,31.3917526 129.510309,40.6701031 131.443299,64.2525773 C131.675258,67.2680412 130.051546,70.2061856 127.42268,71.5979381 L120.231959,75.4639175 C116.520619,77.3969072 112.036082,75.1546392 111.262887,71.056701 Z"></path>
                                <path d="M93.4020619,80.4123711 C90.5412371,60.3865979 79.4072165,51.9587629 79.4072165,51.9587629 L97.5773196,41.443299 C97.5773196,41.443299 111.726804,49.871134 113.737113,73.685567 C113.969072,76.7010309 112.345361,79.6391753 109.716495,81.0309278 L102.525773,84.8969072 C98.6597938,86.9072165 94.0979381,84.5876289 93.4020619,80.4123711 Z"></path>
                                <path d="M147.216495,50.5670103 C144.35567,30.3092784 132.835052,21.3402062 132.835052,21.3402062 L151.005155,10.8247423 C151.005155,10.8247423 165.541237,20.1030928 167.474227,43.685567 C167.706186,46.7010309 166.082474,49.6391753 163.453608,51.0309278 L156.262887,54.8969072 C152.474227,56.9072165 148.06701,54.6649485 147.216495,50.5670103 Z"></path>
                                <path d="M129.35567,59.8453608 C126.494845,39.8195876 115.360825,31.3917526 115.360825,31.3917526 L133.530928,20.8762887 C133.530928,20.8762887 147.680412,29.3041237 149.690722,53.1185567 C149.92268,56.1340206 148.298969,59.0721649 145.670103,60.4639175 L138.479381,64.3298969 C134.613402,66.4175258 130.051546,64.0979381 129.35567,59.8453608 Z"></path>
                                <path d="M165.309278,39.3556701 C162.448454,19.3298969 151.314433,10.9020619 151.314433,10.9020619 L169.484536,0.386597938 C169.484536,0.386597938 183.634021,8.81443299 185.64433,32.628866 C185.876289,35.6443299 184.252577,38.5824742 181.623711,39.9742268 L174.43299,43.8402062 C170.64433,45.9278351 166.082474,43.5309278 165.309278,39.3556701 Z"></path>
                                <path d="M2.24226804,131.443299 C0.850515464,121.85567 1.54639175,110.876289 0.773195876,105.309278 C-1.11022302e-16,99.742268 2.93814433,96.3402062 2.93814433,96.3402062 C2.93814433,96.3402062 21.8814433,100.128866 23.8917526,124.252577 C24.1237113,127.268041 22.5,130.206186 19.871134,131.597938 L11.3659794,136.082474 C7.57731959,138.247423 2.93814433,135.773196 2.24226804,131.443299 Z"></path>
                            </g>
                            <g transform="translate(11.597938, 13.917526)">
                                <path d="M197.164948,23.3505155 C194.92268,1.70103093 176.21134,0 176.21134,0 L158.195876,10.3608247 C158.195876,10.3608247 175.051546,9.58762887 178.840206,31.4690722 C180.386598,34.6391753 184.329897,36.0309278 187.57732,34.1752577 L193.376289,30.8505155 C196.005155,29.3814433 197.474227,26.443299 197.164948,23.3505155 Z" fill="#ED58A7"></path>
                                <path d="M161.28866,41.443299 C157.57732,19.7938144 140.721649,20.4896907 140.721649,20.4896907 L158.737113,10.128866 C158.737113,10.128866 177.371134,11.5979381 179.690722,33.4793814 C180,36.4948454 178.530928,39.4329897 175.902062,40.9793814 L170.103093,44.3041237 C166.778351,46.2371134 162.757732,44.6907216 161.28866,41.443299 Z" fill="#D94636"></path>
                                <path d="M143.737113,51.3402062 C140.025773,30 123.170103,30.6185567 123.170103,30.6185567 L141.185567,20.1804124 C141.185567,20.1804124 159.742268,21.3402062 162.139175,43.5309278 C162.448454,46.5463918 160.979381,49.4845361 158.350515,51.0309278 L152.551546,54.3556701 C149.226804,56.3659794 145.128866,54.742268 143.737113,51.3402062 Z" fill="#ED58A7"></path>
                                <path d="M126.494845,61.2371134 C122.783505,40.128866 105.695876,40.7474227 105.695876,40.7474227 L123.71134,30.3092784 C123.71134,30.3092784 142.268041,31.2371134 144.664948,53.6597938 C144.974227,56.6752577 143.505155,59.6134021 140.876289,61.1597938 L135.07732,64.4845361 C131.675258,66.4948454 127.731959,64.7938144 126.494845,61.2371134 Z" fill="#D94636"></path>
                                <path d="M108.943299,71.1340206 C105.309278,50.257732 88.2216495,50.7989691 88.2216495,50.7989691 L106.314433,40.3608247 C106.314433,40.3608247 124.793814,41.056701 127.268041,63.7113402 C127.57732,66.7268041 126.108247,69.6649485 123.479381,71.2113402 L117.680412,74.5360825 C114.123711,76.6237113 110.103093,74.8453608 108.943299,71.1340206 Z" fill="#ED58A7"></path>
                                <path d="M91.0824742,81.0309278 C87.4484536,60.3865979 70.6701031,60.9278351 70.6701031,60.9278351 L88.7628866,50.4896907 C88.7628866,50.4896907 107.164948,50.8762887 109.716495,73.8402062 C110.025773,76.8556701 108.556701,79.7938144 105.927835,81.3402062 L100.128866,84.6649485 C96.5721649,86.7525773 92.1649485,84.8195876 91.0824742,81.0309278 Z" fill="#D94636"></path>
                                <path d="M73.5309278,90.9278351 C69.8969072,70.5154639 53.1958763,70.9793814 53.1958763,70.9793814 L71.2886598,60.5412371 C71.2886598,60.5412371 89.6134021,60.6958763 92.242268,83.8917526 C92.5515464,86.9072165 91.0824742,89.8453608 88.4536082,91.3917526 L82.6546392,94.7164948 C79.0206186,96.8814433 74.5360825,94.871134 73.5309278,90.9278351 Z" fill="#ED58A7"></path>
                                <path d="M55.9793814,100.902062 C52.4226804,80.7216495 35.6443299,81.185567 35.6443299,81.185567 L53.7371134,70.7473966 C53.7371134,70.7473966 71.9845361,70.5927835 74.6907216,94.0979381 C75,97.1134021 73.5309278,100.051546 70.9020619,101.597938 L65.1030928,104.92268 C61.4690722,107.010309 56.9072165,104.92268 55.9793814,100.902062 Z" fill="#D96236"></path>
                                <path d="M38.4278351,110.798969 C34.871134,90.8505155 18.1701031,91.314433 18.1701031,91.314433 L36.3402062,80.7989691 C36.3402062,80.7989691 54.5103093,80.4123711 57.2938144,104.149485 C57.6804124,107.164948 56.1340206,110.103093 53.5051546,111.649485 L47.7061856,114.974227 C43.9175258,117.139175 39.2783505,114.974227 38.4278351,110.798969 Z" fill="#ED58A7"></path>
                                <path d="M25.0515464,125.56701 L1.54639175,115.206186 L0.695876289,100.824742 C0.695876289,100.747423 28.5309278,92.8608247 25.0515464,125.56701 Z" fill="#EB7352"></path>
                                <path d="M20.8762887,120.695876 C17.3195876,101.907216 0.695876289,100.747423 0.695876289,100.747423 L0.618556701,99.4329897 L18.7886598,90.8505155 C18.7886598,90.8505155 36.8814433,90.1546392 39.742268,114.201031 C40.128866,117.216495 38.5824742,120.154639 35.9536082,121.701031 L30.1546392,125.025773 C26.3659794,127.268041 21.6494845,124.948454 20.8762887,120.695876 Z" fill="#F58A55"></path>
                            </g>
                            <g transform="translate(11.597938, 11.597938)">
                                <path d="M198.479381,25.6701031 C196.237113,4.02061856 176.21134,0.386597938 176.21134,0.386597938 L158.195876,10.7474227 C158.195876,10.7474227 176.365979,11.9845361 180.154639,33.7886598 C181.701031,36.9587629 185.64433,38.3505155 188.891753,36.4948454 L194.690722,33.1701031 C197.319588,31.7010309 198.78866,28.7628866 198.479381,25.6701031 Z" fill="#FF7670"></path>
                                <path d="M162.603093,43.7628866 C158.891753,22.1134021 140.721649,20.8762887 140.721649,20.8762887 L158.737113,10.5154639 C158.737113,10.5154639 178.685567,13.9175258 181.005155,35.7989691 C181.314433,38.814433 179.845361,41.7525773 177.216495,43.2989691 L171.417526,46.6237113 C168.092784,48.556701 164.072165,47.0103093 162.603093,43.7628866 Z" fill="#FFD070"></path>
                                <path d="M145.051546,53.6597938 C141.340206,32.3195876 123.170103,31.0051546 123.170103,31.0051546 L141.185567,20.5670103 C141.185567,20.5670103 161.056701,23.6597938 163.453608,45.8505155 C163.762887,48.8659794 162.293814,51.8041237 159.664948,53.3505155 L153.865979,56.6752577 C150.541237,58.685567 146.365979,57.0618557 145.051546,53.6597938 Z" fill="#FF7670"></path>
                                <path d="M127.5,63.556701 C123.78866,42.4484536 105.695876,41.1340206 105.695876,41.1340206 L123.71134,30.6958763 C123.71134,30.6958763 143.505155,33.556701 145.979381,55.9793814 C146.28866,58.9948454 144.819588,61.9329897 142.190722,63.4793814 L136.391753,66.8041237 C132.989691,68.814433 128.737113,67.1134021 127.5,63.556701 Z" fill="#FFD070"></path>
                                <path d="M109.948454,73.4536082 C106.314433,52.5773196 88.2216495,51.185567 88.2216495,51.185567 L106.314433,40.7474227 C106.314433,40.7474227 126.108247,43.3762887 128.582474,66.0309278 C128.891753,69.0463918 127.42268,71.9845361 124.793814,73.5309278 L118.994845,76.8556701 C115.438144,78.943299 111.108247,77.1649485 109.948454,73.4536082 Z" fill="#FF7670"></path>
                                <path d="M92.3969072,83.3505155 C88.7628866,62.7061856 70.6701031,61.314433 70.6701031,61.314433 L88.7628866,50.8762887 C88.7628866,50.8762887 108.479381,53.1958763 111.030928,76.1597938 C111.340206,79.1752577 109.871134,82.1134021 107.242268,83.6597938 L101.443299,86.9845361 C97.8865979,89.0721649 93.4793814,87.1391753 92.3969072,83.3505155 Z" fill="#FFD070"></path>
                                <path d="M74.8453608,93.2474227 C71.2113402,72.8350515 53.1958763,71.3659794 53.1958763,71.3659794 L71.2886598,60.9278351 C71.2886598,60.9278351 90.9278351,63.0154639 93.556701,86.2113402 C93.8659794,89.2268041 92.3969072,92.1649485 89.7680412,93.7113402 L83.9690722,97.0360825 C80.3350515,99.2010309 75.8505155,97.1907216 74.8453608,93.2474227 Z" fill="#FF7670"></path>
                                <path d="M57.2938144,103.221649 C53.7371134,83.0412371 35.6443299,81.5721649 35.6443299,81.5721649 L53.7371134,71.1340206 C53.7371134,71.1340206 73.2989691,72.9123711 76.0051546,96.4175258 C76.314433,99.4329897 74.8453608,102.371134 72.2164948,103.917526 L66.4175258,107.242268 C62.7835052,109.329897 58.2216495,107.242268 57.2938144,103.221649 Z" fill="#FFD070"></path>
                                <path d="M39.742268,113.118557 C36.185567,93.1701031 18.1701031,91.7010309 18.1701031,91.7010309 L36.3402062,81.185567 C36.3402062,81.185567 55.8247423,82.7319588 58.6082474,106.469072 C58.9948454,109.484536 57.4484536,112.42268 54.8195876,113.969072 L49.0206186,117.293814 C45.2319588,119.458763 40.5927835,117.293814 39.742268,113.118557 Z" fill="#FF7670"></path>
                                <path d="M22.1907216,123.015464 C18.6340206,103.298969 0.618556701,101.752577 0.618556701,101.752577 L18.7886598,91.2371134 C18.7886598,91.2371134 38.1958763,92.5515464 41.056701,116.520619 C41.443299,119.536082 39.8969072,122.474227 37.2680412,124.020619 L31.4690722,127.345361 C27.6804124,129.587629 22.9639175,127.345361 22.1907216,123.015464 Z" fill="#FFD070"></path>
                            </g>
                            <path d="M206.520619,25.5927835 L188.737113,35.8762887 L49.2525773,116.365979 L31.2371134,126.804124 C29.6907216,123.556701 27.6030928,121.082474 25.4381443,119.226804 L43.5309278,108.78866 L182.938144,28.2989691 L200.335052,18.2474227 C202.57732,20.1030928 204.742268,22.5773196 206.520619,25.5927835 Z" fill-opacity="0.114073427" fill="#000000"></path>
                        </g>
                    </g>
                </g>
                <g id="Group" transform="translate(54.896907, 94.329897)">
                    <path d="M5.41237113,84.6649485 C2.93814433,84.6649485 1.31443299,82.6546392 1.08247423,79.4072165 L0.154639175,64.1752577 C-0.154639175,59.1494845 3.09278351,53.0412371 7.34536082,50.5670103 L93.4020619,1.2371134 C94.5618557,0.618556701 95.6443299,0.231958763 96.6494845,0.231958763 C99.1237113,0.231958763 100.747423,2.24226804 100.979381,5.48969072 L101.907216,20.7216495 C102.216495,25.7474227 98.9690722,31.8556701 94.7164948,34.3298969 L8.65979381,83.6597938 C7.5,84.3556701 6.41752577,84.6649485 5.41237113,84.6649485 L5.41237113,84.6649485 Z" id="Path" fill-opacity="0.191078453" fill="#000000"></path>
                    <path d="M112.731959,26.9072165 C111.958763,30.5412371 109.561856,34.1752577 106.701031,35.7989691 L84.742268,48.4020619 L84.742268,48.3247423 L15.5412371,87.9896907 C11.7525773,90.1546392 8.50515464,88.2989691 8.19587629,83.8917526 L7.34536082,70.3608247 C7.03608247,65.9536082 9.89690722,60.6185567 13.685567,58.4536082 L83.2731959,18.556701 L83.2731959,18.556701 L84.4329897,17.8608247 L104.304124,6.49484536 L104.845361,6.18556701 C107.783505,4.48453608 110.412371,5.25773196 111.572165,7.80927835 C112.113402,8.65979381 112.42268,9.81958763 112.5,11.1340206 L113.195876,22.7319588 C113.273196,24.1237113 113.118557,25.5154639 112.731959,26.9072165 Z" id="Path" fill="#FFFFFF"></path>
                </g>
                <g id="Group" transform="translate(98.969072, 115.979381)">
                    <path d="M10.6701031,49.2525773 L36.6494845,4.63917526 L31.5463918,1.70103093 L31.5463918,1.70103093 C28.2216495,-0.309278351 23.5824742,0 18.4793814,2.93814433 C8.35051546,8.81443299 0.154639175,22.8865979 0.154639175,34.5618557 C0.154639175,39.9742268 1.93298969,43.9175258 4.87113402,45.9278351 L4.87113402,45.9278351 L4.87113402,45.9278351 C5.25773196,46.1597938 5.56701031,46.3917526 6.03092784,46.5463918 L10.6701031,49.2525773 Z" id="Path" fill="#DE004E"></path>
                    <g transform="translate(4.639175, 3.092784)">
                        <path d="M37.1907216,13.2216495 C37.1907216,24.8195876 28.9948454,38.9690722 18.8659794,44.8453608 C8.7371134,50.7216495 0.541237113,46.0051546 0.541237113,34.4072165 C0.541237113,22.8092784 8.7371134,8.65979381 18.8659794,2.78350515 C28.9948454,-3.09278351 37.1907216,1.62371134 37.1907216,13.2216495 Z" id="Path" fill="#F72A54"></path>
                        <path d="M36.6494845,14.3814433 C36.6494845,25.3608247 28.8402062,38.814433 19.2525773,44.3814433 C9.66494845,49.9484536 1.8556701,45.4639175 1.8556701,34.4845361 C1.8556701,23.5051546 9.66494845,10.0515464 19.2525773,4.48453608 C28.8402062,-1.00515464 36.6494845,3.40206186 36.6494845,14.3814433 Z" id="Path" fill="#FF345D"></path>
                        <g transform="translate(8.505155, 8.505155)" fill="#FFFFFF">
                            <path d="M20.3350515,10.8247423 L3.09278351,20.7216495 C2.39690722,21.1082474 1.77835052,22.1907216 1.93298969,22.9639175 L3.32474227,30.3865979 C3.55670103,31.4690722 4.48453608,31.8556701 5.56701031,31.1597938 L17.7835052,24.1237113 C18.8659794,23.5051546 19.7938144,22.1134021 20.0257732,20.7989691 L21.4175258,11.7525773 C21.5721649,10.8247423 21.0309278,10.3608247 20.3350515,10.8247423 Z M8.19587629,25.5154639 C8.19587629,26.1340206 7.80927835,26.8298969 7.34536082,27.0618557 L7.26804124,27.0618557 C6.80412371,27.2938144 6.41752577,27.0618557 6.41752577,26.443299 L6.41752577,22.4226804 C6.41752577,21.8041237 6.80412371,21.1082474 7.26804124,20.8762887 L7.34536082,20.8762887 C7.80927835,20.6443299 8.19587629,20.8762887 8.19587629,21.4948454 L8.19587629,25.5154639 Z M12.6030928,22.9639175 C12.6030928,23.5824742 12.2164948,24.2783505 11.7525773,24.5103093 L11.6752577,24.5103093 C11.2113402,24.742268 10.8247423,24.5103093 10.8247423,23.8917526 L10.8247423,19.871134 C10.8247423,19.2525773 11.2113402,18.556701 11.6752577,18.2474227 L11.7525773,18.2474227 C12.2164948,18.0154639 12.6030928,18.2474227 12.6030928,18.8659794 L12.6030928,22.9639175 Z M17.0103093,20.4123711 C17.0103093,21.0309278 16.6237113,21.7268041 16.1597938,21.9587629 L16.0824742,21.9587629 C15.6185567,22.1907216 15.2319588,21.9587629 15.2319588,21.3402062 L15.2319588,17.3195876 C15.2319588,16.7010309 15.6185567,16.0051546 16.0824742,15.6958763 L16.1597938,15.6958763 C16.6237113,15.4639175 17.0103093,15.6958763 17.0103093,16.314433 L17.0103093,20.4123711 Z" id="Shape"></path>
                            <path d="M22.0360825,5.87628866 L1.31443299,17.8608247 C0.695876289,18.2474227 0.154639175,19.1752577 0.154639175,20.0257732 L0.154639175,20.0257732 C0.154639175,20.8762887 0.695876289,21.2628866 1.31443299,20.8762887 L22.0360825,8.89175258 C22.6546392,8.50515464 23.1958763,7.57731959 23.1958763,6.72680412 L23.1958763,6.72680412 C23.1958763,5.95360825 22.7319588,5.56701031 22.0360825,5.87628866 Z" id="Path"></path>
                            <path d="M13.7628866,12.2164948 C13.7628866,13.5309278 12.8350515,15.1546392 11.6752577,15.7731959 C10.5154639,16.4690722 9.58762887,15.9278351 9.58762887,14.6134021 C9.58762887,13.2989691 10.5154639,11.6752577 11.6752577,11.056701 C12.8350515,10.3608247 13.7628866,10.9020619 13.7628866,12.2164948 Z" id="Path"></path>
                            <path d="M11.056701,14.7680412 L11.056701,14.7680412 C10.5927835,14.6134021 10.5154639,13.9175258 10.8247423,13.1443299 L16.2371134,1.62371134 C16.6237113,0.850515464 17.242268,0.386597938 17.7061856,0.463917526 L17.7061856,0.463917526 C18.1701031,0.618556701 18.2474227,1.31443299 17.9381443,2.08762887 L12.5257732,13.6082474 C12.2164948,14.3814433 11.5206186,14.9226804 11.056701,14.7680412 Z" id="Path"></path>
                        </g>
                    </g>
                </g>
            </g>
        </g>
    </g>
</svg>