<?xml version="1.0" encoding="UTF-8"?>
<svg width="22px" height="20px" viewBox="0 0 22 20" version="1.1" xmlns="http://www.w3.org/2000/svg" xmlns:xlink="http://www.w3.org/1999/xlink">
    <!-- Generator: Sketch 57.1 (83088) - https://sketch.com -->
    <title>dashboard_ic</title>
    <desc>Created with Sketch.</desc>
    <g id="Page-1" stroke="none" stroke-width="1" fill="none" fill-rule="evenodd">
        <g id="Desktop-Copy-7" transform="translate(-331.000000, -24.000000)" fill="#BFBFBF">
            <g id="dashboard_ic" transform="translate(331.000000, 24.000000)">
                <path d="M20.002,9.0002 C20.002,4.0382 15.964,0.0002 11.002,0.0002 L10.002,0.0002 L10.002,10.0002 L20.002,10.0002 L20.002,9.0002 Z" id="Fill-4437"></path>
                <path d="M8,11.0012 L8,2.0622 L7.876,2.0782 C3.386,2.6392 0,6.4752 0,11.0002 C0,15.9632 4.038,20.0002 9,20.0002 C11.11,20.0002 13.161,19.2552 14.775,17.8992 L14.842,17.8432 L8,11.0012 Z" id="Fill-4438"></path>
                <path d="M11.5869,12.0012 L18.6559,19.0722 L19.3639,18.3642 C21.0639,16.6632 21.9999,14.4042 21.9999,12.0012 L11.5869,12.0012 Z" id="Fill-4439"></path>
            </g>
        </g>
    </g>
</svg>