<?xml version="1.0" encoding="UTF-8"?>
<svg width="36px" height="36px" viewBox="0 0 36 36" version="1.1" xmlns="http://www.w3.org/2000/svg" xmlns:xlink="http://www.w3.org/1999/xlink">
    <!-- Generator: Sketch 57.1 (83088) - https://sketch.com -->
    <title>Group 8 Copy</title>
    <desc>Created with Sketch.</desc>
    <g id="App" stroke="none" stroke-width="1" fill="none" fill-rule="evenodd">
        <g id="Desktop-Copy-11" transform="translate(-288.000000, -91.000000)" fill="#ABA9AA">
            <g id="Group-8-Copy" transform="translate(288.000000, 91.000000)">
                <path d="M31.7748772,0.0750116732 C34.0553684,0.076692607 35.9204211,1.94519066 35.9254737,4.22397665 C35.934807,8.47232685 35.9297544,12.7207471 35.9272281,16.9690973 C35.9267368,17.8164981 35.3231579,18.4251362 34.5084211,18.4185525 C33.7148772,18.4121089 33.1266667,17.8025603 33.1253333,16.9684669 C33.121193,14.3074086 33.1220351,11.6463502 33.1210526,8.98529183 L33.1210526,8.57255253 L2.82659649,8.57255253 C2.82021053,8.66227237 2.80666667,8.76249805 2.80666667,8.86272374 C2.80568421,13.8580389 2.8034386,18.8533541 2.80722807,23.8486693 C2.80835088,25.2836965 3.58989474,26.3504591 4.91494737,26.7112996 C5.22554386,26.7959066 5.56063158,26.8207004 5.88470175,26.821751 C8.42231579,26.8303658 10.96,26.8351984 13.4974737,26.8209805 C14.2082105,26.8169883 14.6905965,27.1126926 15.0263158,27.7256031 C15.9279298,29.3716576 16.8437193,31.0099377 17.754386,32.6509494 C17.8106667,32.7522957 17.8710175,32.8512607 17.9612632,33.0058366 C18.0437193,32.8707315 18.1096842,32.770856 18.1675789,32.6664981 C19.0727719,31.0357121 19.9869474,29.4097588 20.8764912,27.7704981 C21.2383158,27.1038677 21.7493333,26.8084436 22.5178947,26.8158677 C25.0669474,26.8405214 27.6163509,26.8312763 30.1656842,26.8244125 C31.5848421,26.8206304 32.6360702,26.0436187 33.0066667,24.73207 C33.0786667,24.4769883 33.1013333,24.2053774 33.1234386,23.9394397 C33.1889123,23.1514319 33.8134737,22.5939922 34.6090526,22.6263502 C35.3488421,22.6564669 35.9197193,23.2659455 35.9281404,24.0347626 C35.9579649,26.7654397 33.8585965,29.1920078 31.1389474,29.5603424 C30.8162807,29.6040467 30.4877895,29.6219767 30.1619649,29.6227471 C27.9050526,29.628 25.648,29.6290506 23.3910877,29.6201556 C23.1622456,29.6192451 23.0385965,29.6848716 22.9272281,29.8892451 C22.1965614,31.2302101 21.4194386,32.5467315 20.72,33.9034553 C20.202807,34.9068327 19.5334035,35.6776109 18.3859649,35.9303113 L17.5438596,35.9303113 C16.3960702,35.6784514 15.7299649,34.9013696 15.2113684,33.9035253 C14.5131228,32.5600389 13.7437895,31.2535331 13.0190877,29.9234942 C12.8964211,29.6984591 12.7591579,29.6213463 12.5028772,29.6223969 C10.1653333,29.631572 7.82666667,29.6672218 5.49024561,29.6123813 C3.25529825,29.5598521 1.6074386,28.4701868 0.589473684,26.4936887 C0.308140351,25.9473152 0.191929825,25.3162646 -1.0125234e-13,24.7240856 L-1.0125234e-13,3.71241245 C0.173122807,3.02266926 0.377964912,2.3479144 0.825614035,1.77303502 C1.67347368,0.684280156 2.77733333,0.0772529183 4.16505263,0.0761322957 C13.3683509,0.0683579767 22.5716491,0.068077821 31.7748772,0.0750116732 Z M19.0641404,19.0539105 C19.8014737,19.0546809 20.390807,19.5613424 20.4817544,20.2501751 C20.577193,20.9728366 20.1412632,21.6262296 19.4280702,21.8075603 C19.2727018,21.8471323 19.1048421,21.8491634 18.9427368,21.8494436 C17.3302456,21.8522914 15.7178246,21.8511946 14.1052632,21.8510545 C12.4460351,21.8509144 10.7868772,21.8549767 9.12764912,21.8490934 C8.39150877,21.8464319 7.80905263,21.3322763 7.7277193,20.63707 C7.64273684,19.9113969 8.08638596,19.2643774 8.79712281,19.0879494 C8.90884211,19.060284 9.02814035,19.0538405 9.144,19.0538405 C12.4507368,19.0520895 15.7574035,19.0504786 19.0641404,19.0539105 Z M26.8000491,13.4505875 C27.3630667,13.4510778 27.7921895,13.7060195 28.0528211,14.2007743 C28.3142246,14.69707 28.2703649,15.1963074 27.9530316,15.6547821 C27.6671368,16.0677315 27.2551368,16.2506732 26.7512772,16.2502529 C24.2732421,16.2480117 21.7950667,16.2511634 19.3169614,16.2509634 C15.9270667,16.2506732 12.5372421,16.2496226 9.14727719,16.2473113 C8.57008421,16.2468911 8.13127719,15.99293 7.86910175,15.4811556 C7.62032982,14.9955759 7.66180351,14.5059339 7.96657544,14.0566342 C8.24797895,13.6416537 8.6558386,13.447856 9.16089123,13.4482058 C12.1066456,13.4501673 15.0522596,13.4491868 17.998014,13.4492568 C20.9320491,13.4493268 23.866014,13.4479261 26.8000491,13.4505875 Z M4.32140351,2.87278599 C3.50336842,2.87677821 2.91719298,3.34274708 2.8357193,4.11170428 C2.77985965,4.63881712 2.82505263,5.17657588 2.82505263,5.72708171 L22.0820351,5.72708171 C21.7442807,4.78099611 21.7468772,3.84275486 22.0628772,2.87061479 L8.77417544,2.87068482 L8.77417544,2.87068482 C7.28996491,2.87068482 5.80568421,2.86564202 4.32140351,2.87278599 Z M26.0044912,2.87488716 C25.2585965,2.8942179 24.6190175,3.5523035 24.6345965,4.28442023 C24.6505263,5.0336965 25.2883509,5.6671284 26.0306667,5.67071536 C26.7858947,5.67434241 27.445193,5.01296498 27.4357895,4.26102724 C27.426386,3.50649805 26.7541053,2.85548638 26.0044912,2.87488716 Z M31.6715088,2.87474708 C30.9201404,2.85709728 30.2534737,3.50908949 30.2484211,4.26649027 C30.2435088,5.00126848 30.8833684,5.65319066 31.6267368,5.67070039 C32.3780351,5.68835019 33.0448421,5.03628794 33.0498519,4.2789572 C33.0546667,3.54410895 32.414807,2.89225681 31.6715088,2.87474708 Z" id="Fill-9"></path>
            </g>
        </g>
    </g>
</svg>