<?xml version="1.0" encoding="UTF-8"?>
<svg width="24px" height="24px" viewBox="0 0 24 24" version="1.1" xmlns="http://www.w3.org/2000/svg" xmlns:xlink="http://www.w3.org/1999/xlink">
    <!-- Generator: Sketch 57.1 (83088) - https://sketch.com -->
    <title>Restaurant</title>
    <desc>Created with Sketch.</desc>
    <g id="Restaurant" stroke="none" stroke-width="1" fill="none" fill-rule="evenodd">
        <g id="restaurant">
            <path d="M5.65911986,5.0779114 L7.67408177,5.0779114 L6.24610876,10.2726899 L3.51616037,10.2726899 L5.65911986,5.0779114 Z M12.9999811,5.0779114 L14.2459575,5.0779114 L15.6739306,10.2726899 L12.9999811,10.2726899 L12.9999811,5.0779114 Z M8.32606945,10.2726899 L9.75404245,5.0779114 L11.0000189,5.0779114 L11.0000189,10.2726899 L8.32606945,10.2726899 Z M20.4828397,10.2726899 L17.7538912,10.2726899 L16.3259182,5.0779114 L18.3408801,5.0779114 L20.4828397,10.2726899 Z M11.0000189,18.5843355 L6.00011341,18.5843355 L6.00011341,14.4285127 L11.0000189,14.4285127 L11.0000189,18.5843355 Z M22.9187936,10.9022971 L19.9188503,3.62960715 C19.7618533,3.24727146 19.3998601,3 18.9998677,3 L5.00013231,3 C4.60013988,3 4.23814672,3.24727146 4.08114969,3.62960715 L1.08120639,10.9022971 C0.948208906,11.2233344 0.980208301,11.5921636 1.1652048,11.8841102 C1.35020131,12.1760567 1.66419537,12.3506013 2.00018902,12.3506013 L3.00017012,12.3506013 L3.00017012,20.6622469 C3.00017012,21.2357504 3.44816165,21.7012026 4.00015122,21.7012026 L13.9999622,21.7012026 L13.9999622,14.4285127 L17.9998866,14.4285127 L17.9998866,21.7012026 L19.9998488,21.7012026 C20.5518383,21.7012026 20.9998299,21.2357504 20.9998299,20.6622469 L20.9998299,12.3506013 L21.999811,12.3506013 C22.3358046,12.3506013 22.6497987,12.1760567 22.8347952,11.8841102 C23.0197917,11.5921636 23.0517911,11.2233344 22.9187936,10.9022971 L22.9187936,10.9022971 Z" id="Fill-130" fill="#CBCBCB"></path>
            <path d="M0,0 L24,0 L24,24 L0,24 L0,0 Z M0,0 L24,0 L24,24 L0,24 L0,0 Z" id="Shape"></path>
        </g>
    </g>
</svg>