<?xml version="1.0" encoding="UTF-8"?>
<svg width="32px" height="28px" viewBox="0 0 32 28" version="1.1" xmlns="http://www.w3.org/2000/svg" xmlns:xlink="http://www.w3.org/1999/xlink">
    <!-- Generator: Sketch 57.1 (83088) - https://sketch.com -->
    <title>Fill 2014 + Fill 2015 + Fill 2016</title>
    <desc>Created with Sketch.</desc>
    <g id="Marketing" stroke="none" stroke-width="1" fill="none" fill-rule="evenodd">
        <g id="Desktop-Copy-22" transform="translate(-751.000000, -216.000000)" fill="#BB544F">
            <g id="Group-4" transform="translate(654.572438, 177.000000)">
                <g id="Fill-2014-+-Fill-2015-+-Fill-2016" transform="translate(97.000000, 39.000000)">
                    <path d="M30.2380889,10.4947059 L24.7269778,8.04229707 C24.2998667,7.85223538 23.7928444,7.87308086 23.3864,8.09625006 C22.9799556,8.31941926 22.7333333,8.71425708 22.7333333,9.13975001 L22.7333333,13.530788 L26.8666667,15.7379559 L26.8666667,28 L29.6222222,28 C30.3827556,28 31,27.4518866 31,26.7737956 L31,11.5921588 C31,11.1274274 30.7051556,10.7019344 30.2380889,10.4947059" id="Fill-2014"></path>
                    <path d="M5.51111111,14.3138071 L2.75555556,14.3138071 L2.75555556,11.8254084 L5.51111111,11.8254084 L5.51111111,14.3138071 Z M5.51111111,19.2906045 L2.75555556,19.2906045 L2.75555556,16.8022058 L5.51111111,16.8022058 L5.51111111,19.2906045 Z M5.51111111,24.2674019 L2.75555556,24.2674019 L2.75555556,21.7790032 L5.51111111,21.7790032 L5.51111111,24.2674019 Z M7.69488889,6.32107044 C7.33528889,6.08716096 6.87373333,6.02495099 6.45351111,6.15061513 L0.9424,7.80913287 C0.378888889,7.97834398 0,8.45487233 0,8.98987805 L0,26.7558006 C0,27.4425987 0.617244444,28 1.37777778,28 L6.88888889,28 C7.64942222,28 8.26666667,27.4425987 8.26666667,26.7558006 L8.26666667,7.33011612 C8.26666667,6.93072812 8.05448889,6.55497992 7.69488889,6.32107044 L7.69488889,6.32107044 Z" id="Fill-2015"></path>
                    <path d="M21.3555556,20.5703706 L14.4666667,20.5703706 L14.4666667,18.0938275 L21.3555556,18.0938275 L21.3555556,20.5703706 Z M23.3492,16.513793 C22.7939556,16.2636621 20.5302667,15.150456 19.9777778,15.150456 L19.9777778,2.88909102 C19.9777778,2.35663424 19.5988889,1.88237624 19.0353778,1.7139713 L13.5242667,0.0633553133 C13.1040444,-0.0617101144 12.6424889,0.000203463693 12.2842667,0.232998517 C11.9232889,0.465793571 11.7111111,0.839751582 11.7111111,1.23723675 L11.7111111,3.23456878 L17.2222222,3.23456878 L17.2222222,5.7111119 L11.7111111,5.7111119 L11.7111111,8.18765502 L17.2222222,8.18765502 L17.2222222,10.6641981 L11.7111111,10.6641981 L11.7111111,13.1407413 L17.2222222,13.1407413 L17.2222222,15.6172844 L11.7111111,15.6172844 L11.7111111,26.7617284 C11.7111111,27.4452543 12.3283556,28 13.0888889,28 L15.8444444,28 L15.8444444,26.1425927 C15.8444444,25.1173038 16.7703111,24.2851853 17.9111111,24.2851853 C19.0519111,24.2851853 19.9777778,25.1173038 19.9777778,26.1425927 L19.9777778,28 L24.1111111,28 L24.1111111,17.6208078 C24.1111111,17.1515029 23.8162667,16.7230609 23.3492,16.513793 L23.3492,16.513793 Z" id="Fill-2016"></path>
                </g>
            </g>
        </g>
    </g>
</svg>