<?xml version="1.0" encoding="UTF-8"?>
<svg width="36px" height="30px" viewBox="0 0 36 30" version="1.1" xmlns="http://www.w3.org/2000/svg" xmlns:xlink="http://www.w3.org/1999/xlink">
    <!-- Generator: Sketch 57.1 (83088) - https://sketch.com -->
    <title>Group 10</title>
    <desc>Created with Sketch.</desc>
    <defs>
        <polygon id="path-1" points="1.40350877e-05 0.049740566 35.9308772 0.049740566 35.9308772 29.9241596 1.40350877e-05 29.9241596"></polygon>
    </defs>
    <g id="App" stroke="none" stroke-width="1" fill="none" fill-rule="evenodd" opacity="1">
        <g id="Desktop-Copy-11" transform="translate(-539.000000, -166.000000)">
            <g id="Group-10" transform="translate(539.000000, 166.000000)">
                <path d="M34.6090316,22.857559 C33.8134526,22.8248703 33.1889614,23.3880778 33.1234175,24.1840684 C33.1013825,24.4527241 33.0786456,24.7271108 33.0066456,24.9847995 C32.6361193,26.3098231 31.5848211,27.0946344 30.1657333,27.0985259 C28.3229263,27.1035495 26.4801193,27.1094222 24.6373825,27.103125 L24.6373825,29.9253184 C26.4789263,29.9297759 28.3204702,29.9297759 30.1619439,29.9254599 C30.4877684,29.9246816 30.8162596,29.9065684 31.1389263,29.8624175 C33.8586456,29.4903184 35.958014,27.0390212 35.9280491,24.2803656 C35.9196982,23.503691 35.3488211,22.8879127 34.6090316,22.857559" id="Fill-1" fill="#231F20"></path>
                <g id="Group-5" transform="translate(0.000000, 0.021014)">
                    <mask id="mask-2" fill="white">
                        <use xlink:href="#path-1"></use>
                    </mask>
                    <g id="Clip-4"></g>
                    <path d="M2.83573333,4.13270519 C2.91720702,3.35588915 3.50338246,2.88508726 4.32141754,2.881125 C5.80562807,2.87383726 7.28990877,2.87900236 8.77418947,2.87900236 C13.0750316,2.87900236 17.3758737,2.8789316 21.6767158,2.8789316 L22.0628211,2.8789316 C21.7468211,3.86100708 21.7442947,4.80883726 22.0820491,5.76459198 L2.82506667,5.76459198 C2.82506667,5.20845991 2.77987368,4.66520519 2.83573333,4.13270519 L2.83573333,4.13270519 Z M26.0044351,2.88324764 C26.7541193,2.86357783 27.4264,3.52124292 27.4358035,4.28355425 C27.445207,5.04317689 26.7859088,5.71131368 26.0306105,5.70764956 C25.2883649,5.70402594 24.6504702,5.06412028 24.6346105,4.30718632 C24.6189614,3.56758726 25.2585404,2.90277594 26.0044351,2.88324764 L26.0044351,2.88324764 Z M31.6715228,2.88310613 C32.4148211,2.90072406 33.0546807,3.55930896 33.0498659,4.30166745 C33.044786,5.06673821 32.3780491,5.72546462 31.6266807,5.70763443 C30.8833825,5.689875 30.2435228,5.03136085 30.2484351,4.28907311 C30.2534877,3.52386085 30.9201544,2.86520519 31.6715228,2.88310613 L31.6715228,2.88310613 Z M11.5205754,27.0815024 C9.64197895,27.0855354 7.76331228,27.0812901 5.88471579,27.0748514 C5.56064561,27.0737193 5.22555789,27.0486722 4.9149614,26.9632712 C3.58990877,26.5987429 2.80829474,25.5210778 2.80724211,24.0713844 C2.80345263,19.0250165 2.80562807,13.9785778 2.8066807,8.93220991 C2.8066807,8.83095991 2.82015439,8.72970991 2.82661053,8.63914387 L33.1209965,8.63914387 C33.1209965,8.79742217 33.1209263,8.92676179 33.1209965,9.05603066 C33.1220491,11.7443561 33.1211368,14.4325401 33.1253474,17.1207948 C33.1266807,17.9634835 33.7148211,18.5792618 34.5084351,18.5857712 C35.3231018,18.5924222 35.9267509,17.9774929 35.9272421,17.1215024 C35.9297684,12.8296627 35.9348211,8.53789387 35.9254175,4.246125 C35.9204351,1.94397877 34.0553825,0.0564551887 31.7748912,0.0547570755 C22.571593,0.0477523585 13.3682947,0.0480353774 4.16499649,0.0558183962 C2.77734737,0.0569504717 1.67348772,0.670181604 0.825557895,1.77006368 C0.377978947,2.3508184 0.173136842,3.03254009 1.40350877e-05,3.72933255 L1.40350877e-05,24.9557476 C0.19194386,25.5539788 0.308084211,26.1914788 0.589487719,26.7433656 C1.60745263,28.7401344 3.25531228,29.8409363 5.49025965,29.8939316 C7.49945263,29.9416203 9.51018947,29.9216675 11.5205754,29.9092146 L11.5205754,27.0815024 Z" id="Fill-3" fill="#231F20" mask="url(#mask-2)"></path>
                </g>
                <path d="M11.4022737,27.1037406 L11.4022737,29.9431274 C16.1297123,29.9587642 20.8593263,29.9451085 25.5881684,29.9355566 L25.5881684,27.1078443 C20.859607,27.1110991 16.1309053,27.1081981 11.4022737,27.1037406" id="Fill-6" fill="#231F20"></path>
                <path d="M10.5786035,14.1527972 C10.1595158,14.1527972 9.81867368,14.4965236 9.81867368,14.919 L9.81867368,20.5205094 C9.81867368,20.9429858 10.1595158,21.2867123 10.5786035,21.2867123 L25.9896912,21.2867123 C26.4087088,21.2867123 26.7496211,20.9429858 26.7496211,20.5205094 L26.7496211,14.919 C26.7496211,14.4965236 26.4087088,14.1527972 25.9896912,14.1527972 L10.5786035,14.1527972 Z M25.9896912,23.9753915 L10.5786035,23.9753915 C8.68912982,23.9753915 7.15200702,22.4255094 7.15200702,20.5205094 L7.15200702,14.919 C7.15200702,13.014 8.68912982,11.4641179 10.5786035,11.4641179 L25.9896912,11.4641179 C27.8791649,11.4641179 29.4162877,13.014 29.4162877,14.919 L29.4162877,20.5205094 C29.4162877,22.4255094 27.8791649,23.9753915 25.9896912,23.9753915 L25.9896912,23.9753915 Z" id="Fill-8" fill="#231F20"></path>
            </g>
        </g>
    </g>
</svg>