<?xml version="1.0" encoding="UTF-8"?>
<svg width="456px" height="456px" viewBox="0 0 456 456" version="1.1" xmlns="http://www.w3.org/2000/svg" xmlns:xlink="http://www.w3.org/1999/xlink">
    <!-- Generator: Sketch 57.1 (83088) - https://sketch.com -->
    <title>Group 3</title>
    <desc>Created with Sketch.</desc>
    <g id="App" stroke="none" stroke-width="1" fill="none" fill-rule="evenodd">
        <g id="Group-3">
            <circle id="Oval" fill="#FFF5F0" cx="228" cy="228" r="228"></circle>
            <g id="Group-6" transform="translate(80.000000, 80.000000)" fill="#FF4500">
                <path d="M150.780093,176.595822 C162.374655,176.848342 173.877308,178.307759 185.308475,180.425398 C198.162851,182.806698 210.812984,185.918634 223.200385,190.062931 C241.289907,196.114125 258.642294,203.699934 273.767493,215.603647 C281.560332,221.736538 288.267891,228.873939 292.168952,238.177255 C293.412056,241.141578 294.13248,244.337069 294.963382,247.461074 C295.91683,251.047414 294.525186,253.938395 292.413117,256.855371 C276.687255,278.586008 257.31378,296.212268 233.885133,309.328448 C221.514443,316.254178 208.495743,321.562666 194.826247,325.384814 C179.305557,329.725928 163.485928,331.608687 148.37744,331.937334 C133.776777,331.769297 120.236326,330.409218 106.983674,327.169164 C63.9522414,316.645955 29.5231963,293.253515 3.07823607,257.733621 C-0.86831565,252.433488 -0.483965517,247.586406 1.25582228,242.164655 C5.29335544,229.580438 14.0916313,220.725531 24.3975995,213.152719 C35.1668302,205.240119 47.0844695,199.4563 59.4653714,194.535875 C71.1072812,189.90882 83.0518435,186.24821 95.2285013,183.407361 C113.487918,179.145159 131.962719,176.183621 150.780093,176.595822 Z M221.406827,73.8015385 C221.349191,114.15366 188.853966,147.850212 147.412851,147.751094 C106.123064,147.651538 73.5136472,114.514801 73.5590904,73.6353581 C73.605557,32.6612202 107.281684,-0.391962865 147.566034,0.00445623342 C188.01935,-0.423527851 221.465239,33.4067109 221.406827,73.8015385 Z" id="Fill-9"></path>
            </g>
        </g>
    </g>
</svg>